<svg width="69" height="16" viewBox="0 0 69 16" fill="none" xmlns="http://www.w3.org/2000/svg">
<path d="M7.4 9.608H4.152L3.568 12H0.824L4.216 0.912H7.4L10.792 12H7.984L7.4 9.608ZM4.568 7.704H6.968L5.768 2.8L4.568 7.704ZM19.2578 2.144L19.8498 4C19.5511 4.11733 19.2018 4.20267 18.8018 4.256C18.4018 4.30933 17.9351 4.336 17.4018 4.336C17.9351 4.56533 18.3404 4.85067 18.6178 5.192C18.9004 5.528 19.0417 5.97067 19.0417 6.52C19.0417 7.06933 18.8951 7.56 18.6018 7.992C18.3084 8.41867 17.8924 8.75467 17.3538 9C16.8151 9.24533 16.1778 9.368 15.4418 9.368C15.2604 9.368 15.0898 9.36 14.9298 9.344C14.7698 9.328 14.6124 9.304 14.4578 9.272C14.3671 9.32 14.2978 9.38933 14.2498 9.48C14.2018 9.57067 14.1778 9.664 14.1778 9.76C14.1778 9.89333 14.2311 10.0133 14.3378 10.12C14.4498 10.2267 14.7084 10.28 15.1137 10.28H16.5058C17.1671 10.28 17.7378 10.3867 18.2178 10.6C18.7031 10.8133 19.0791 11.104 19.3458 11.472C19.6124 11.84 19.7458 12.2613 19.7458 12.736C19.7458 13.6053 19.3644 14.2907 18.6018 14.792C17.8391 15.2933 16.7058 15.544 15.2018 15.544C14.1138 15.544 13.2711 15.432 12.6738 15.208C12.0818 14.9893 11.6684 14.6747 11.4338 14.264C11.2044 13.8587 11.0898 13.376 11.0898 12.816H13.3298C13.3298 13.0613 13.3778 13.2613 13.4738 13.416C13.5751 13.576 13.7644 13.6933 14.0418 13.768C14.3244 13.8427 14.7324 13.88 15.2658 13.88C15.8044 13.88 16.2151 13.8373 16.4978 13.752C16.7804 13.6667 16.9724 13.5493 17.0738 13.4C17.1804 13.256 17.2338 13.0933 17.2338 12.912C17.2338 12.6613 17.1351 12.4587 16.9378 12.304C16.7404 12.1493 16.4284 12.072 16.0018 12.072H14.6498C13.7324 12.072 13.0658 11.904 12.6497 11.568C12.2338 11.2267 12.0258 10.8293 12.0258 10.376C12.0258 10.0613 12.1084 9.76267 12.2738 9.48C12.4444 9.19733 12.6818 8.96 12.9858 8.768C12.4418 8.48 12.0524 8.14133 11.8178 7.752C11.5831 7.35733 11.4658 6.88533 11.4658 6.336C11.4658 5.696 11.6284 5.14667 11.9538 4.688C12.2791 4.224 12.7271 3.86667 13.2978 3.616C13.8738 3.36533 14.5298 3.24 15.2658 3.24C15.9004 3.25067 16.4524 3.208 16.9218 3.112C17.3911 3.01067 17.8124 2.87467 18.1858 2.704C18.5591 2.528 18.9164 2.34133 19.2578 2.144ZM15.3298 4.88C14.9298 4.88 14.6124 5.008 14.3778 5.264C14.1431 5.51467 14.0258 5.86133 14.0258 6.304C14.0258 6.77333 14.1458 7.13333 14.3858 7.384C14.6258 7.63467 14.9404 7.76 15.3298 7.76C15.7511 7.76 16.0711 7.63467 16.2898 7.384C16.5138 7.13333 16.6258 6.76267 16.6258 6.272C16.6258 5.79733 16.5164 5.448 16.2978 5.224C16.0791 4.99467 15.7564 4.88 15.3298 4.88ZM21.3075 12V3.504H23.5155L23.6915 4.488C24.0702 4.06133 24.4702 3.744 24.8915 3.536C25.3128 3.328 25.7928 3.224 26.3315 3.224C27.0568 3.224 27.6275 3.44533 28.0435 3.888C28.4595 4.33067 28.6675 4.95467 28.6675 5.76V12H26.1395V6.488C26.1395 6.14133 26.1155 5.86667 26.0675 5.664C26.0195 5.456 25.9342 5.30933 25.8115 5.224C25.6942 5.13333 25.5315 5.088 25.3235 5.088C25.1475 5.088 24.9742 5.128 24.8035 5.208C24.6382 5.28267 24.4755 5.392 24.3155 5.536C24.1555 5.68 23.9955 5.85333 23.8355 6.056V12H21.3075ZM33.0933 8.488C33.1519 8.952 33.2719 9.328 33.4533 9.616C33.6399 9.89867 33.8773 10.1067 34.1653 10.24C34.4533 10.368 34.7759 10.432 35.1333 10.432C35.5226 10.432 35.8986 10.368 36.2613 10.24C36.6239 10.112 36.9733 9.94133 37.3093 9.728L38.3253 11.104C37.9253 11.4453 37.4399 11.7253 36.8693 11.944C36.3039 12.1627 35.6586 12.272 34.9333 12.272C33.9626 12.272 33.1493 12.08 32.4933 11.696C31.8373 11.3067 31.3439 10.7733 31.0133 10.096C30.6826 9.41867 30.5173 8.64 30.5173 7.76C30.5173 6.92267 30.6773 6.16267 30.9973 5.48C31.3173 4.792 31.7839 4.24533 32.3973 3.84C33.0159 3.42933 33.7706 3.224 34.6613 3.224C35.4719 3.224 36.1733 3.39733 36.7653 3.744C37.3626 4.09067 37.8239 4.58933 38.1493 5.24C38.4799 5.89067 38.6453 6.672 38.6453 7.584C38.6453 7.728 38.6399 7.88267 38.6293 8.048C38.6239 8.21333 38.6133 8.36 38.5972 8.488H33.0933ZM34.6613 4.92C34.2079 4.92 33.8426 5.08267 33.5653 5.408C33.2879 5.73333 33.1199 6.25333 33.0613 6.968H36.1813C36.1759 6.34933 36.0559 5.85333 35.8213 5.48C35.5866 5.10667 35.1999 4.92 34.6613 4.92ZM43.903 10.464C44.3243 10.464 44.663 10.3973 44.919 10.264C45.1803 10.1307 45.311 9.93067 45.311 9.664C45.311 9.48267 45.2603 9.33067 45.159 9.208C45.0577 9.08533 44.863 8.968 44.575 8.856C44.287 8.744 43.8603 8.61067 43.295 8.456C42.7777 8.31733 42.319 8.14133 41.919 7.928C41.5243 7.71467 41.215 7.44 40.991 7.104C40.7723 6.768 40.663 6.34933 40.663 5.848C40.663 5.34133 40.8043 4.89067 41.087 4.496C41.3697 4.10133 41.7857 3.792 42.335 3.568C42.8843 3.33867 43.5563 3.224 44.351 3.224C45.1083 3.224 45.767 3.32267 46.327 3.52C46.8923 3.712 47.3803 3.95733 47.791 4.256L46.783 5.744C46.431 5.52533 46.0523 5.352 45.647 5.224C45.2417 5.09067 44.8337 5.024 44.423 5.024C44.0123 5.024 43.7057 5.08 43.503 5.192C43.3057 5.29867 43.207 5.46133 43.207 5.68C43.207 5.824 43.2577 5.94933 43.359 6.056C43.4657 6.15733 43.663 6.264 43.951 6.376C44.239 6.48267 44.6603 6.616 45.215 6.776C45.7643 6.93067 46.2417 7.10933 46.647 7.312C47.0577 7.51467 47.375 7.78667 47.599 8.128C47.823 8.464 47.935 8.90933 47.935 9.464C47.935 10.0827 47.751 10.6027 47.383 11.024C47.015 11.44 46.527 11.752 45.919 11.96C45.311 12.168 44.6443 12.272 43.919 12.272C43.0977 12.272 42.3723 12.1547 41.743 11.92C41.1137 11.6853 40.5777 11.376 40.135 10.992L41.407 9.568C41.7377 9.824 42.111 10.0373 42.527 10.208C42.9483 10.3787 43.407 10.464 43.903 10.464ZM57.6648 0.912L58.2888 12H56.0008L55.8648 7.256C55.8541 6.81333 55.8488 6.41867 55.8488 6.072C55.8541 5.72533 55.8621 5.4 55.8728 5.096C55.8834 4.78667 55.8994 4.47733 55.9208 4.168C55.9474 3.85333 55.9741 3.512 56.0008 3.144L54.7528 10.112H52.7688L51.4248 3.144C51.4568 3.496 51.4834 3.82933 51.5048 4.144C51.5314 4.45333 51.5501 4.76533 51.5608 5.08C51.5714 5.39467 51.5794 5.73333 51.5848 6.096C51.5901 6.45333 51.5874 6.85333 51.5768 7.296L51.4968 12H49.2488L49.8728 0.912H52.5688L53.8008 8.08L54.9688 0.912H57.6648ZM67.5465 4.28C67.5465 4.808 67.4478 5.26933 67.2505 5.664C67.0532 6.05867 66.7865 6.392 66.4505 6.664C66.1145 6.936 65.7385 7.15467 65.3225 7.32L68.2265 12H65.2585L62.8585 7.76H62.1145V12H59.4905V0.912H62.9785C64.4878 0.912 65.6265 1.18667 66.3945 1.736C67.1625 2.28533 67.5465 3.13333 67.5465 4.28ZM64.8425 4.28C64.8425 3.74667 64.6852 3.36 64.3705 3.12C64.0612 2.87467 63.5998 2.752 62.9865 2.752H62.1145V5.96H63.0905C63.6612 5.96 64.0958 5.82667 64.3945 5.56C64.6932 5.29333 64.8425 4.86667 64.8425 4.28Z" fill="white"/>
</svg>
