<svg width="349" height="282" viewBox="0 0 349 282" fill="none" xmlns="http://www.w3.org/2000/svg">
<circle cx="2" cy="42" r="2" fill="#ABB2BF"/>
<circle cx="16.75" cy="42" r="2" fill="#ABB2BF"/>
<circle cx="31.5" cy="42" r="2" fill="#ABB2BF"/>
<circle cx="46.25" cy="42" r="2" fill="#ABB2BF"/>
<circle cx="61" cy="42" r="2" fill="#ABB2BF"/>
<circle cx="2" cy="56.75" r="2" fill="#ABB2BF"/>
<circle cx="16.75" cy="56.75" r="2" fill="#ABB2BF"/>
<circle cx="31.5" cy="56.75" r="2" fill="#ABB2BF"/>
<circle cx="46.25" cy="56.75" r="2" fill="#ABB2BF"/>
<circle cx="61" cy="56.75" r="2" fill="#ABB2BF"/>
<circle cx="2" cy="71.5" r="2" fill="#ABB2BF"/>
<circle cx="16.75" cy="71.5" r="2" fill="#ABB2BF"/>
<circle cx="31.5" cy="71.5" r="2" fill="#ABB2BF"/>
<circle cx="46.25" cy="71.5" r="2" fill="#ABB2BF"/>
<circle cx="61" cy="71.5" r="2" fill="#ABB2BF"/>
<circle cx="2" cy="86.25" r="2" fill="#ABB2BF"/>
<circle cx="16.75" cy="86.25" r="2" fill="#ABB2BF"/>
<circle cx="31.5" cy="86.25" r="2" fill="#ABB2BF"/>
<circle cx="46.25" cy="86.25" r="2" fill="#ABB2BF"/>
<circle cx="61" cy="86.25" r="2" fill="#ABB2BF"/>
<circle cx="2" cy="101" r="2" fill="#ABB2BF"/>
<circle cx="16.75" cy="101" r="2" fill="#ABB2BF"/>
<circle cx="31.5" cy="101" r="2" fill="#ABB2BF"/>
<circle cx="46.25" cy="101" r="2" fill="#ABB2BF"/>
<circle cx="61" cy="101" r="2" fill="#ABB2BF"/>
<circle cx="179" cy="147" r="2" fill="#ABB2BF"/>
<circle cx="193.75" cy="147" r="2" fill="#ABB2BF"/>
<circle cx="208.5" cy="147" r="2" fill="#ABB2BF"/>
<circle cx="223.25" cy="147" r="2" fill="#ABB2BF"/>
<circle cx="238" cy="147" r="2" fill="#ABB2BF"/>
<circle cx="179" cy="161.75" r="2" fill="#ABB2BF"/>
<circle cx="193.75" cy="161.75" r="2" fill="#ABB2BF"/>
<circle cx="208.5" cy="161.75" r="2" fill="#ABB2BF"/>
<circle cx="223.25" cy="161.75" r="2" fill="#ABB2BF"/>
<circle cx="238" cy="161.75" r="2" fill="#ABB2BF"/>
<circle cx="179" cy="176.5" r="2" fill="#ABB2BF"/>
<circle cx="193.75" cy="176.5" r="2" fill="#ABB2BF"/>
<circle cx="208.5" cy="176.5" r="2" fill="#ABB2BF"/>
<circle cx="223.25" cy="176.5" r="2" fill="#ABB2BF"/>
<circle cx="238" cy="176.5" r="2" fill="#ABB2BF"/>
<circle cx="179" cy="191.25" r="2" fill="#ABB2BF"/>
<circle cx="193.75" cy="191.25" r="2" fill="#ABB2BF"/>
<circle cx="208.5" cy="191.25" r="2" fill="#ABB2BF"/>
<circle cx="223.25" cy="191.25" r="2" fill="#ABB2BF"/>
<circle cx="238" cy="191.25" r="2" fill="#ABB2BF"/>
<circle cx="179" cy="206" r="2" fill="#ABB2BF"/>
<circle cx="193.75" cy="206" r="2" fill="#ABB2BF"/>
<circle cx="208.5" cy="206" r="2" fill="#ABB2BF"/>
<circle cx="223.25" cy="206" r="2" fill="#ABB2BF"/>
<circle cx="238" cy="206" r="2" fill="#ABB2BF"/>
<path fill-rule="evenodd" clip-rule="evenodd" d="M61.7518 174.037L49.0511 160H29.781V189.83H0V206.57L14.3364 221.394L0 235.43V252.997H29.781V282H48.1752L60.8969 269.275L75.3285 282H94.5985V252.998H120V235.452L109.489 221.853L120 208.254V189.83H94.5985V160H75.3285L61.7518 174.037ZM48.1752 281.073L60.438 268.791V258.262C52.2161 247.296 69.635 247.296 61.3139 258.262V268.791L75.3285 281.073H93.7226V252.642L79.708 240.277C63.5037 238.961 79.708 225.362 80.146 239.838L94.1606 252.121H119.163L119.124 235.452L108.613 222.291H98.1022C86.7153 230.187 87.58 212.08 98.1022 221.394H108.613L119.124 208.254V190.707C110.365 190.707 94.6867 190.602 94.1606 190.707C93.6345 190.812 79.6702 205.465 74.0146 211.325C74.0146 228.871 55.6204 213.079 74.0146 210.447L93.7226 190.268V160.877H75.3285L62.1898 174.476V184.566C70.5109 195.532 52.9927 196.41 61.3139 184.566V174.476L49.0511 160.877H30.6569V190.268L42.0438 201.235C56.3802 203.99 43.7956 217.466 41.1679 201.235L30.219 190.707H0.875912V206.57L14.8905 220.975H25.8394C36.6405 213.403 34.508 230.945 25.8394 221.853H14.8905L0.875912 235.43V252.121H30.219L49.927 231.065C54.3066 215.273 65.6934 232.819 49.927 231.942L30.6569 252.56V281.073H48.1752Z" fill="#FF0068"/>
<path fill-rule="evenodd" clip-rule="evenodd" d="M323.274 203.213L317.664 197H309.153V210.203H296V217.613L302.332 224.174L296 230.387V238.163H309.153V251H317.277L322.896 245.368L329.27 251H337.781V238.163H349V230.397L344.358 224.377L349 218.358V210.203H337.781V197H329.27L323.274 203.213ZM317.277 250.59L322.693 245.153V240.493C319.062 235.639 326.755 235.639 323.08 240.493V245.153L329.27 250.59H337.394V238.005L331.204 232.532C324.047 231.95 331.204 225.931 331.398 232.338L337.588 237.775H348.63L348.613 230.397L343.971 224.572H339.328C334.299 228.067 334.681 220.052 339.328 224.174H343.971L348.613 218.358V210.592C344.745 210.592 337.82 210.545 337.588 210.592C337.355 210.638 331.188 217.124 328.69 219.717C328.69 227.484 320.566 220.494 328.69 219.329L337.394 210.397V197.388H329.27L323.467 203.407V207.873C327.142 212.727 319.405 213.116 323.08 207.873V203.407L317.664 197.388H309.54V210.397L314.569 215.252C320.901 216.471 315.343 222.436 314.182 215.252L309.347 210.592H296.387V217.613L302.577 223.989H307.412C312.183 220.637 311.241 228.402 307.412 224.377H302.577L296.387 230.387V237.775H309.347L318.051 228.455C319.985 221.465 325.015 229.232 318.051 228.843L309.54 237.969V250.59H317.277Z" fill="#FF0068"/>
<path fill-rule="evenodd" clip-rule="evenodd" d="M271.741 10.0103L262.745 0H249.095V21.272H228V33.2097L238.155 43.7806L228 53.7903V66.3174H249.095V87H262.124L271.135 77.9258L281.358 87H295.007V66.3185H313V53.8056L305.555 44.1081L313 34.4105V21.272H295.007V0H281.358L271.741 10.0103ZM262.124 86.3392L270.81 77.5801V70.0724C264.986 62.2518 277.325 62.2518 271.431 70.0724V77.5801L281.358 86.3392H294.387V66.0643L284.46 57.2466C272.982 56.3082 284.46 46.6107 284.77 56.9338L294.697 65.6929H312.407L312.38 53.8056L304.934 44.4209H297.489C289.423 50.0517 290.036 37.1387 297.489 43.7806H304.934L312.38 34.4105V21.8976C306.175 21.8976 295.07 21.8228 294.697 21.8976C294.324 21.9725 284.433 32.4218 280.427 36.6003C280.427 49.1132 267.398 37.8516 280.427 35.9747L294.387 21.5848V0.625646H281.358L272.051 10.3232V17.5181C277.945 25.3387 265.536 25.9643 271.431 17.5181V10.3232L262.745 0.625646H249.715V21.5848L257.781 29.4054C267.936 31.3699 259.022 40.9798 257.161 29.4054L249.405 21.8976H228.62V33.2097L238.547 43.4824H246.303C253.954 38.0825 252.443 50.5922 246.303 44.1081H238.547L228.62 53.7903V65.6929H249.405L263.365 50.6774C266.467 39.4157 274.533 51.9286 263.365 51.303L249.715 66.0057V86.3392H262.124Z" fill="#FF0068"/>
</svg>
