<svg width="94" height="14" viewBox="0 0 94 14" fill="none" xmlns="http://www.w3.org/2000/svg">
<path d="M5.088 13.216C4.14933 13.216 3.344 13.0027 2.672 12.576C2 12.144 1.48533 11.5013 1.128 10.648C0.770667 9.79467 0.592 8.73333 0.592 7.464C0.592 6.52 0.72 5.69067 0.976 4.976C1.232 4.26133 1.584 3.664 2.032 3.184C2.48 2.704 2.992 2.344 3.568 2.104C4.14933 1.85867 4.76267 1.736 5.408 1.736C6.16 1.736 6.78667 1.848 7.288 2.072C7.79467 2.296 8.264 2.608 8.696 3.008L7.656 4.088C7.32 3.77867 6.976 3.552 6.624 3.408C6.27733 3.25867 5.888 3.184 5.456 3.184C5.06667 3.184 4.696 3.26133 4.344 3.416C3.99733 3.56533 3.688 3.808 3.416 4.144C3.144 4.47467 2.928 4.91467 2.768 5.464C2.61333 6.008 2.536 6.67733 2.536 7.472C2.536 8.496 2.63467 9.32533 2.832 9.96C3.02933 10.5893 3.32267 11.048 3.712 11.336C4.10667 11.624 4.59467 11.768 5.176 11.768C5.512 11.768 5.832 11.728 6.136 11.648C6.44 11.568 6.728 11.4533 7 11.304V8.264H5.128L4.928 6.848H8.8V12.2C8.27733 12.4933 7.72 12.736 7.128 12.928C6.54133 13.12 5.86133 13.216 5.088 13.216ZM15.6338 4.552V11.688H17.9298V13H11.3138V11.688H13.8418V5.864H11.3938V4.552H15.6338ZM14.3858 0.415999C14.7378 0.415999 15.0204 0.522666 15.2338 0.735999C15.4524 0.949333 15.5618 1.216 15.5618 1.536C15.5618 1.856 15.4524 2.12533 15.2338 2.344C15.0204 2.56267 14.7378 2.672 14.3858 2.672C14.0444 2.672 13.7644 2.56267 13.5458 2.344C13.3271 2.12533 13.2178 1.856 13.2178 1.536C13.2178 1.216 13.3271 0.949333 13.5458 0.735999C13.7644 0.522666 14.0444 0.415999 14.3858 0.415999ZM27.6675 12.552C27.3582 12.7493 26.9875 12.9093 26.5555 13.032C26.1235 13.1547 25.6728 13.216 25.2035 13.216C24.2222 13.216 23.4755 12.9627 22.9635 12.456C22.4568 11.944 22.2035 11.272 22.2035 10.44V5.856H20.3235V4.552H22.2035V2.664L23.9955 2.448V4.552H26.8435L26.6435 5.856H23.9955V10.424C23.9955 10.8773 24.1075 11.216 24.3315 11.44C24.5608 11.6587 24.9342 11.768 25.4515 11.768C25.7608 11.768 26.0462 11.7307 26.3075 11.656C26.5688 11.5813 26.8062 11.4853 27.0195 11.368L27.6675 12.552ZM31.9973 0.983999V5.584C32.3386 5.168 32.7386 4.856 33.1973 4.648C33.6559 4.43467 34.1279 4.328 34.6133 4.328C35.4079 4.328 35.9999 4.54933 36.3893 4.992C36.7786 5.42933 36.9733 6.04533 36.9733 6.84V13H35.1813V7.12C35.1813 6.61333 35.0853 6.25067 34.8933 6.032C34.7013 5.808 34.3919 5.696 33.9653 5.696C33.6986 5.696 33.4426 5.75733 33.1973 5.88C32.9573 5.99733 32.7333 6.152 32.5253 6.344C32.3226 6.536 32.1466 6.74133 31.9973 6.96V13H30.2053V1.176L31.9973 0.983999ZM41.591 4.552V10.456C41.591 10.9573 41.6897 11.3147 41.887 11.528C42.0897 11.7413 42.3937 11.848 42.799 11.848C43.183 11.848 43.5537 11.7333 43.911 11.504C44.2683 11.2747 44.551 10.9947 44.759 10.664V4.552H46.551V13H45.007L44.895 11.92C44.5803 12.3413 44.183 12.664 43.703 12.888C43.223 13.1067 42.7323 13.216 42.231 13.216C41.415 13.216 40.8043 12.992 40.399 12.544C39.999 12.0907 39.799 11.4693 39.799 10.68V4.552H41.591ZM51.1848 5.56C51.4781 5.176 51.8194 4.87467 52.2088 4.656C52.6034 4.43733 53.0354 4.328 53.5048 4.328C54.2461 4.328 54.8461 4.512 55.3048 4.88C55.7688 5.24267 56.1074 5.75733 56.3208 6.424C56.5394 7.08533 56.6488 7.864 56.6488 8.76C56.6488 9.61867 56.5208 10.384 56.2648 11.056C56.0088 11.728 55.6301 12.256 55.1288 12.64C54.6328 13.024 54.0194 13.216 53.2888 13.216C52.3448 13.216 51.6034 12.8667 51.0648 12.168L50.9688 13H49.3928V1.16L51.1848 0.959999V5.56ZM52.8408 11.848C53.4488 11.848 53.9181 11.6 54.2488 11.104C54.5848 10.608 54.7528 9.82933 54.7528 8.768C54.7528 8.048 54.6861 7.464 54.5528 7.016C54.4194 6.56267 54.2221 6.232 53.9608 6.024C53.7048 5.816 53.3901 5.712 53.0168 5.712C52.6168 5.712 52.2648 5.832 51.9608 6.072C51.6568 6.312 51.3981 6.59467 51.1848 6.92V10.872C51.3821 11.176 51.6194 11.416 51.8968 11.592C52.1794 11.7627 52.4941 11.848 52.8408 11.848ZM76.2317 3.384L77.0557 4.68L71.5837 7.984L77.0557 11.288L76.1757 12.576L70.0397 8.752V7.216L76.2317 3.384ZM86.8717 3.384L93.0558 7.208V8.752L86.9198 12.576L86.0397 11.312L91.5198 7.984L86.0397 4.704L86.8717 3.384ZM87.7038 6.696L88.8398 7.24C88.6584 7.61867 88.4451 7.976 88.1998 8.312C87.9598 8.648 87.6718 8.92267 87.3358 9.136C87.0051 9.34933 86.6024 9.456 86.1277 9.456C85.7491 9.456 85.4211 9.376 85.1437 9.216C84.8611 9.056 84.6077 8.86933 84.3837 8.656C84.1544 8.44267 83.9331 8.256 83.7197 8.096C83.5011 7.936 83.2664 7.856 83.0157 7.856C82.7704 7.856 82.5464 7.936 82.3438 8.096C82.1357 8.256 81.9251 8.44267 81.7117 8.656C81.4984 8.86933 81.2584 9.056 80.9917 9.216C80.7197 9.376 80.3944 9.456 80.0157 9.456C79.6371 9.456 79.3091 9.376 79.0317 9.216C78.7491 9.056 78.4957 8.86933 78.2717 8.656C78.0424 8.44267 77.8211 8.256 77.6077 8.096C77.3891 7.936 77.1544 7.856 76.9037 7.856C76.5731 7.856 76.2904 7.98133 76.0557 8.232C75.8157 8.47733 75.5917 8.792 75.3837 9.176L74.2477 8.64C74.4344 8.272 74.6477 7.92 74.8877 7.584C75.1224 7.24267 75.4077 6.96267 75.7437 6.744C76.0797 6.52 76.4851 6.408 76.9597 6.408C77.3597 6.408 77.7011 6.488 77.9837 6.648C78.2664 6.808 78.5197 6.99467 78.7437 7.208C78.9677 7.42133 79.1837 7.608 79.3917 7.768C79.5997 7.928 79.8264 8.008 80.0717 8.008C80.3117 8.008 80.5304 7.928 80.7277 7.768C80.9251 7.608 81.1304 7.42133 81.3438 7.208C81.5517 6.99467 81.7917 6.808 82.0637 6.648C82.3357 6.488 82.6717 6.408 83.0717 6.408C83.4717 6.408 83.8131 6.488 84.0957 6.648C84.3784 6.808 84.6317 6.99467 84.8557 7.208C85.0797 7.42133 85.2957 7.608 85.5037 7.768C85.7117 7.928 85.9384 8.008 86.1837 8.008C86.5038 8.008 86.7838 7.888 87.0238 7.648C87.2691 7.40267 87.4958 7.08533 87.7038 6.696Z" fill="white"/>
</svg>
