<svg width="32" height="32" viewBox="0 0 32 32" fill="none" xmlns="http://www.w3.org/2000/svg">
<path d="M15.5 5C9.159 5 4 10.159 4 16.5C4 18.48 4.5115 20.427 5.4815 22.145L4.0185 27.365C3.9705 27.5365 4.017 27.7205 4.141 27.848C4.2365 27.9465 4.3665 28 4.5 28C4.54 28 4.5805 27.995 4.62 27.9855L10.068 26.636C11.7315 27.529 13.605 28 15.5 28C21.841 28 27 22.841 27 16.5C27 10.159 21.841 5 15.5 5ZM21.285 20.558C21.039 21.239 19.859 21.8605 19.292 21.944C18.783 22.0185 18.139 22.0505 17.432 21.8285C17.0035 21.6935 16.4535 21.5145 15.749 21.214C12.7875 19.951 10.8535 17.0065 10.7055 16.812C10.558 16.6175 9.5 15.2315 9.5 13.797C9.5 12.3625 10.2625 11.657 10.5335 11.365C10.8045 11.073 11.124 11 11.321 11C11.518 11 11.7145 11.0025 11.887 11.0105C12.0685 11.0195 12.312 10.942 12.5515 11.511C12.7975 12.095 13.388 13.5295 13.461 13.676C13.535 13.822 13.584 13.9925 13.486 14.187C13.388 14.3815 13.339 14.503 13.191 14.6735C13.043 14.844 12.881 15.0535 12.748 15.1845C12.6 15.33 12.4465 15.4875 12.6185 15.7795C12.7905 16.0715 13.383 17.026 14.261 17.799C15.3885 18.792 16.34 19.1 16.635 19.246C16.93 19.392 17.1025 19.3675 17.2745 19.173C17.4465 18.978 18.0125 18.3215 18.209 18.03C18.4055 17.7385 18.6025 17.7865 18.8735 17.884C19.1445 17.981 20.596 18.686 20.891 18.832C21.186 18.978 21.383 19.051 21.457 19.1725C21.531 19.2935 21.531 19.8775 21.285 20.558Z" fill="#ABB2BF"/>
</svg>
